<?xml version="1.0" encoding="UTF-8" standalone="no"?>
<svg xmlns="http://www.w3.org/2000/svg" xmlns:xlink="http://www.w3.org/1999/xlink" xmlns:jitters="http://www.semicolonproductions.com/jitters" viewBox="0.000000 0.000000 744.094488 1052.362205" jitters:gridXSpacing="10" jitters:gridYSpacing="10" jitters:gridActive="no">
    <defs/>
    <g visibility="visible" id="Base Layer" jitters:groupType="layer" jitters:effect="none">
        <path d="M 634.812 462.062 L 628.719 507.594 L 572.812 512.312 L 619.906 569.750 L 604.969 673.406 L 647.969 605.062 L 649.062 606.438 C 652.471 590.371 654.281 573.724 654.281 556.656 C 654.281 523.080 647.345 491.114 634.812 462.062 Z M 634.812 462.062 " fill="#ff0" fill-opacity="1" stroke-width="1" stroke-linecap="butt" stroke-linejoin="miter" stroke-miterlimit="4" stroke-dasharray="" stroke-dashoffset="0" stroke="#000" stroke-opacity="1" id="frontStar"/>
        <path d="M 167.094 530.875 C 166.741 534.491 166.470 538.120 166.281 541.781 C 166.067 545.925 165.938 550.115 165.938 554.312 C 165.938 558.579 166.058 562.819 166.281 567.031 C 166.504 571.243 166.842 575.411 167.281 579.562 C 167.721 583.714 168.257 587.851 168.906 591.938 C 169.555 596.024 170.304 600.077 171.156 604.094 L 172.250 602.719 L 215.250 671.062 L 200.312 567.406 L 247.406 509.969 L 191.500 505.250 L 185.594 461.188 C 176.099 482.955 169.727 506.356 167.094 530.875 Z M 167.094 530.875 " fill="#ff0" fill-opacity="1" stroke-width="1" stroke-linecap="butt" stroke-linejoin="miter" stroke-miterlimit="4" stroke-dasharray="" stroke-dashoffset="0" stroke="#000" stroke-opacity="1" id="backStar"/>
        <path d="M 410.000 315.219 C 309.405 315.219 223.037 375.341 185.594 461.188 L 191.500 505.250 L 247.406 509.969 L 200.312 567.406 L 215.250 671.062 L 172.250 602.719 L 171.156 604.094 C 170.304 600.077 169.555 596.024 168.906 591.938 C 168.257 587.851 167.721 583.714 167.281 579.562 C 166.842 575.411 166.504 571.243 166.281 567.031 C 166.058 562.819 165.938 558.579 165.938 554.312 C 165.938 550.115 166.067 545.925 166.281 541.781 C 166.470 538.120 166.741 534.491 167.094 530.875 C 166.184 539.346 165.719 547.947 165.719 556.656 C 165.719 689.994 275.085 798.062 410.000 798.062 C 527.646 798.062 625.845 715.888 649.062 606.438 L 647.969 605.062 L 604.969 673.406 L 619.906 569.750 L 572.812 512.312 L 628.719 507.594 L 634.812 462.062 C 597.578 375.745 510.941 315.219 410.000 315.219 Z M 410.000 315.219 " fill="#f00" fill-opacity="1" stroke-width="1" stroke-linecap="butt" stroke-linejoin="miter" stroke-miterlimit="4" stroke-dasharray="" stroke-dashoffset="0" stroke="#000" stroke-opacity="1" id="ball"/>
    </g>
</svg>