<?xml version="1.0" encoding="UTF-8" standalone="no"?>
<svg xmlns="http://www.w3.org/2000/svg" xmlns:xlink="http://www.w3.org/1999/xlink" xmlns:jitters="http://www.semicolonproductions.com/jitters" viewBox="0.000000 0.000000 640.000000 480.000000" jitters:gridXSpacing="10" jitters:gridYSpacing="10" jitters:gridActive="no">
    <defs/>
    <g visibility="visible" id="Base Layer" jitters:groupType="layer" jitters:effect="none">
        <path d="M 440.208 119.792 C 506.597 186.181 506.597 293.819 440.208 360.208 C 373.819 426.597 266.181 426.597 199.792 360.208 C 133.403 293.819 133.403 186.181 199.792 119.792 C 266.181 53.403 373.819 53.403 440.208 119.792 " fill="#0098f8" fill-opacity="1" stroke-width="1" stroke-linecap="butt" stroke-linejoin="miter" stroke-miterlimit="4" stroke-dasharray="" stroke-dashoffset="0" stroke="none" id="circle"/>
        <path d="M 317.746 71.409 L 317.746 76.773 L 317.746 99.607 L 317.746 138.991 L 317.746 190.866 L 317.746 249.705 L 317.746 308.607 L 317.746 355.404 L 317.746 386.940 L 317.746 404.140 L 317.746 410.147 " fill="none" stroke-width="10" stroke-linecap="butt" stroke-linejoin="miter" stroke-miterlimit="4" stroke-dasharray="" stroke-dashoffset="0" stroke="#00f94f" stroke-opacity="1" id="vert"/>
        <path d="M 488.594 240.000 L 483.112 240.480 L 460.286 240.960 L 421.081 241.440 L 369.560 241.920 L 311.201 241.920 L 252.863 241.920 L 206.581 241.440 L 175.456 240.960 L 158.585 240.480 L 152.783 240.000 " fill="none" stroke-width="10" stroke-linecap="butt" stroke-linejoin="miter" stroke-miterlimit="4" stroke-dasharray="" stroke-dashoffset="0" stroke="#00f94f" stroke-opacity="1" id="horiz"/>
        <path d="M 488.594 240.000 L 471.619 202.701 L 440.668 171.612 L 406.309 150.563 L 360.671 141.039 L 317.746 138.991 L 271.230 145.268 L 222.052 163.827 L 204.135 178.715 L 179.283 199.098 L 153.755 243.082 " fill="none" stroke-width="10" stroke-linecap="butt" stroke-linejoin="miter" stroke-miterlimit="4" stroke-dasharray="" stroke-dashoffset="0" stroke="#ffa639" stroke-opacity="1" id="cross"/>
    </g>
</svg>