<?xml version="1.0" encoding="UTF-8" standalone="no"?>
<svg xmlns="http://www.w3.org/2000/svg" xmlns:xlink="http://www.w3.org/1999/xlink" xmlns:jitters="http://www.semicolonproductions.com/jitters" viewBox="0.000000 0.000000 640.000000 480.000000" jitters:gridXSpacing="10" jitters:gridYSpacing="10" jitters:gridActive="no">
    <defs/>
    <g visibility="visible" id="Base Layer" jitters:groupType="layer" jitters:effect="none">
        <path d="M 440.208 119.792 C 506.597 186.181 506.597 293.819 440.208 360.208 C 373.819 426.597 266.181 426.597 199.792 360.208 C 133.403 293.819 133.403 186.181 199.792 119.792 C 266.181 53.403 373.819 53.403 440.208 119.792 Z M 440.208 119.792 " fill="#ffe74d" fill-opacity="1" stroke-width="10" stroke-linecap="butt" stroke-linejoin="miter" stroke-miterlimit="4" stroke-dasharray="" stroke-dashoffset="0" stroke="#ffe74d" stroke-opacity="1" id="head"/>
        <path d="M 407.031 168.722 C 419.286 181.230 419.286 201.511 407.031 214.019 C 394.776 226.527 374.906 226.527 362.651 214.019 C 350.395 201.511 350.395 181.230 362.651 168.722 C 374.906 156.213 394.776 156.213 407.031 168.722 Z M 407.031 168.722 " fill="#000" fill-opacity="1" stroke-width="1" stroke-linecap="butt" stroke-linejoin="miter" stroke-miterlimit="4" stroke-dasharray="" stroke-dashoffset="0" stroke="none" id="rightEye"/>
        <path d="M 277.762 172.747 C 287.142 187.534 282.917 207.369 268.324 217.050 C 253.732 226.730 234.298 222.590 224.918 207.803 C 215.538 193.015 219.763 173.180 234.355 163.500 C 248.948 153.819 268.382 157.959 277.762 172.747 Z M 277.762 172.747 " fill="#000" fill-opacity="1" stroke-width="1" stroke-linecap="butt" stroke-linejoin="miter" stroke-miterlimit="4" stroke-dasharray="" stroke-dashoffset="0" stroke="none" id="leftEye"/>
        <path d="M 214.301 313.919 L 260.967 359.472 L 313.088 362.610 L 366.425 361.141 L 409.085 315.210 " fill="none" stroke-width="10" stroke-linecap="butt" stroke-linejoin="miter" stroke-miterlimit="4" stroke-dasharray="" stroke-dashoffset="0" stroke="#000" stroke-opacity="1" id="mouth"/>
    </g>
</svg>