<?xml version="1.0" encoding="UTF-8" standalone="no"?>
<svg xmlns="http://www.w3.org/2000/svg" xmlns:xlink="http://www.w3.org/1999/xlink" xmlns:jitters="http://www.semicolonproductions.com/jitters" viewBox="0.000000 0.000000 640.000000 480.000000" jitters:gridXSpacing="10" jitters:gridYSpacing="10" jitters:gridActive="no">
    <defs/>
    <g visibility="visible" id="Base Layer" jitters:groupType="layer" jitters:effect="none">
        <path d="M 443.022 115.243 C 506.072 181.709 506.072 289.471 443.022 355.937 C 379.971 422.403 277.746 422.403 214.695 355.937 C 151.644 289.471 151.644 181.709 214.695 115.243 C 277.746 48.777 379.971 48.777 443.022 115.243 Z M 443.022 115.243 " fill="none" stroke-width="10" stroke-linecap="butt" stroke-linejoin="miter" stroke-miterlimit="4" stroke-dasharray="" stroke-dashoffset="0" stroke="#ffe74d" stroke-opacity="1" id="head"/>
        <path d="M 434.627 278.407 L 442.931 306.724 L 458.722 325.357 L 467.890 333.070 L 467.443 333.580 L 481.234 314.103 L 485.256 303.312 L 488.262 295.653 L 489.404 284.477 L 434.627 278.407 Z M 434.627 278.407 " fill="#000" fill-opacity="1" stroke-width="1" stroke-linecap="butt" stroke-linejoin="miter" stroke-miterlimit="4" stroke-dasharray="" stroke-dashoffset="0" stroke="none" id="mouth"/>
        <path d="M 492.388 161.828 C 498.308 174.351 498.308 194.655 492.388 207.178 C 486.469 219.701 476.872 219.701 470.953 207.178 C 465.033 194.655 465.033 174.351 470.953 161.828 C 476.872 149.306 486.469 149.306 492.388 161.828 Z M 492.388 161.828 " fill="#000" fill-opacity="1" stroke-width="1" stroke-linecap="butt" stroke-linejoin="miter" stroke-miterlimit="4" stroke-dasharray="" stroke-dashoffset="0" stroke="none" id="rightEye"/>
        <path d="M 492.388 161.828 C 498.308 174.351 498.308 194.655 492.388 207.178 C 486.469 219.701 476.872 219.701 470.953 207.178 C 465.033 194.655 465.033 174.351 470.953 161.828 C 476.872 149.306 486.469 149.306 492.388 161.828 Z M 492.388 161.828 " fill="#000" fill-opacity="1" stroke-width="1" stroke-linecap="butt" stroke-linejoin="miter" stroke-miterlimit="4" stroke-dasharray="" stroke-dashoffset="0" stroke="none" id="leftEye"/>
    </g>
</svg>