<?xml version="1.0" encoding="ISO-8859-1" standalone="no"?><svg xmlns="http://www.w3.org/2000/svg" xml:space="preserve" height="543.03003" width="480" version="1.0" xmlns:xlink="http://www.w3.org/1999/xlink" viewBox="0 0 257.002 297.5"  >










<g transform="matrix(0.8526811,0,0,0.8526811,18.930632,21.913299)"  >










<polygon points="8.003,218.496 0,222.998 0,74.497 8.003,78.999 8.003,218.496 "  />










<polygon points="128.501,287.998 128.501,297.5 0,222.998 8.003,218.496 128.501,287.998 "  />










<polygon points="249.004,218.496 257.002,222.998 128.501,297.5 128.501,287.998 249.004,218.496 "  />










<polygon points="249.004,78.999 257.002,74.497 257.002,222.998 249.004,218.496 249.004,78.999 "  />










<polygon points="128.501,9.497 128.501,0 257.002,74.497 249.004,78.999 128.501,9.497 "  />










<polygon points="8.003,78.999 0,74.497 128.501,0 128.501,9.497 8.003,78.999 "  />










</g>










</svg>
