<?xml version="1.0" encoding="UTF-8" standalone="no"?>
<svg xmlns="http://www.w3.org/2000/svg" xmlns:xlink="http://www.w3.org/1999/xlink" xmlns:jitters="http://www.semicolonproductions.com/jitters" viewBox="0.000000 0.000000 744.094488 1052.362205" jitters:gridXSpacing="10" jitters:gridYSpacing="10" jitters:gridActive="no">
    <defs/>
    <g visibility="visible" id="Base Layer" jitters:groupType="layer" jitters:effect="none">
        <path d="M 616.125 572.531 L 615.594 572.531 L 494.969 572.531 C 494.969 576.242 495.186 579.916 495.594 583.531 C 496.001 587.146 496.611 590.717 497.406 594.219 C 498.202 597.720 499.180 601.161 500.344 604.531 C 501.507 607.901 502.863 611.186 504.375 614.406 C 505.887 617.627 507.566 620.791 509.406 623.844 C 511.246 626.897 513.226 629.851 515.375 632.719 C 517.524 635.586 519.844 638.336 522.281 641.000 C 524.718 643.664 527.294 646.245 530.000 648.688 C 532.706 651.130 535.514 653.453 538.469 655.656 C 541.424 657.860 544.504 659.928 547.688 661.875 C 550.871 663.822 554.169 665.641 557.562 667.312 C 559.427 668.231 561.389 669.012 563.312 669.844 C 587.423 641.967 605.642 608.906 616.125 572.531 Z M 616.125 572.531 " fill="#000" fill-opacity="1" stroke-width="1" stroke-linecap="butt" stroke-linejoin="miter" stroke-miterlimit="4" stroke-dasharray="" stroke-dashoffset="0" stroke="none" id="mouth"/>
        <path d="M 623.264 397.783 C 623.264 429.583 597.485 455.362 565.685 455.362 C 533.886 455.362 508.107 429.583 508.107 397.783 C 508.107 365.983 533.886 340.205 565.685 340.205 C 597.485 340.205 623.264 365.983 623.264 397.783 Z M 623.264 397.783 " fill="#000" fill-opacity="1" stroke-width="1" stroke-linecap="butt" stroke-linejoin="miter" stroke-miterlimit="4" stroke-dasharray="" stroke-dashoffset="0" stroke="none" id="leftEye"/>
        <path d="M 367.688 242.219 C 224.867 242.219 109.094 357.992 109.094 500.812 C 109.094 643.633 224.867 759.406 367.688 759.406 C 445.864 759.406 515.894 724.670 563.312 669.844 C 561.389 669.012 559.427 668.231 557.562 667.312 C 554.169 665.641 550.871 663.822 547.688 661.875 C 544.504 659.928 541.424 657.860 538.469 655.656 C 535.514 653.453 532.706 651.130 530.000 648.688 C 527.294 646.245 524.718 643.664 522.281 641.000 C 519.844 638.336 517.524 635.586 515.375 632.719 C 513.226 629.851 511.246 626.897 509.406 623.844 C 507.566 620.791 505.887 617.627 504.375 614.406 C 502.863 611.186 501.507 607.901 500.344 604.531 C 499.180 601.161 498.202 597.720 497.406 594.219 C 496.611 590.717 496.001 587.146 495.594 583.531 C 495.186 579.916 494.969 576.242 494.969 572.531 L 615.594 572.531 L 616.125 572.531 C 622.690 549.750 626.281 525.707 626.281 500.812 C 626.281 357.992 510.508 242.219 367.688 242.219 Z M 367.688 242.219 " fill="#ff0" fill-opacity="1" stroke-width="1" stroke-linecap="butt" stroke-linejoin="miter" stroke-miterlimit="4" stroke-dasharray="" stroke-dashoffset="0" stroke="none" id="head"/>
        <path d="M 623.264 397.783 C 623.264 429.583 597.485 455.362 565.685 455.362 C 533.886 455.362 508.107 429.583 508.107 397.783 C 508.107 365.983 533.886 340.205 565.685 340.205 C 597.485 340.205 623.264 365.983 623.264 397.783 Z M 623.264 397.783 " fill="#000" fill-opacity="1" stroke-width="1" stroke-linecap="butt" stroke-linejoin="miter" stroke-miterlimit="4" stroke-dasharray="" stroke-dashoffset="0" stroke="none" id="rightEye"/>
    </g>
</svg>