<?xml version="1.0" encoding="UTF-8" standalone="no"?>
<svg xmlns="http://www.w3.org/2000/svg" xmlns:xlink="http://www.w3.org/1999/xlink" xmlns:jitters="http://www.semicolonproductions.com/jitters" viewBox="0.000000 0.000000 744.094488 1052.362205" jitters:gridXSpacing="10" jitters:gridYSpacing="10" jitters:gridActive="no">
    <defs/>
    <g visibility="visible" id="Base Layer" jitters:groupType="layer" jitters:effect="none">
        <path d="M 387.187 216.837 C 231.733 216.837 105.720 345.882 105.720 505.075 C 105.720 664.269 231.733 793.314 387.187 793.314 C 472.278 793.314 548.502 754.596 600.114 693.484 C 598.021 692.557 595.886 691.687 593.856 690.662 C 590.163 688.800 590.163 688.800 592.423 689.143 L 593.466 688.345 L 597.077 689.846 L 596.990 690.462 L 592.850 688.526 L 593.893 691.071 L 597.536 687.491 L 597.109 692.517 L 599.322 693.742 L 599.028 694.451 L 645.158 619.753 L 657.021 585.016 L 657.599 585.016 C 664.744 559.623 668.653 532.824 668.653 505.075 C 668.653 345.882 542.640 216.837 387.187 216.837 Z M 387.187 216.837 " fill="#ff0" fill-opacity="1" stroke-width="1" stroke-linecap="butt" stroke-linejoin="miter" stroke-miterlimit="4" stroke-dasharray="" stroke-dashoffset="0" stroke="none" id="head"/>
        <path d="M 406.290 577.800 L 405.481 577.800 L 221.626 577.800 C 221.626 582.741 221.956 587.634 222.578 592.447 C 223.199 597.261 224.128 602.016 225.340 606.680 C 226.553 611.342 228.044 615.924 229.818 620.411 C 231.591 624.899 236.762 634.694 239.067 638.982 C 241.371 643.271 248.263 655.696 256.267 662.814 C 264.271 669.931 265.263 671.408 272.172 674.691 C 279.082 677.974 296.197 688.937 314.523 692.961 C 332.849 696.986 357.279 706.452 396.436 705.158 C 435.594 703.864 448.117 699.633 459.160 693.984 C 470.202 688.336 475.572 687.111 493.758 677.750 C 511.944 668.389 514.746 661.668 520.699 658.303 C 525.729 655.460 533.434 646.556 538.834 642.827 C 549.173 637.494 573.801 595.498 573.301 577.165 " fill="#000" fill-opacity="1" stroke-width="1" stroke-linecap="butt" stroke-linejoin="miter" stroke-miterlimit="4" stroke-dasharray="" stroke-dashoffset="0" stroke="#000" stroke-opacity="1" id="mouth"/>
        <path d="M 518.419 383.164 C 518.419 414.964 492.640 440.743 460.840 440.743 C 429.041 440.743 403.262 414.964 403.262 383.164 C 403.262 351.364 429.041 325.586 460.840 325.586 C 492.640 325.586 518.419 351.364 518.419 383.164 Z M 518.419 383.164 " fill="#000" fill-opacity="1" stroke-width="1" stroke-linecap="butt" stroke-linejoin="miter" stroke-miterlimit="4" stroke-dasharray="" stroke-dashoffset="0" stroke="none" id="rightEye"/>
        <path d="M 358.357 385.460 C 356.885 417.226 329.940 441.784 298.174 440.311 C 266.409 438.839 241.852 411.894 243.324 380.128 C 244.796 348.362 271.741 323.806 303.506 325.278 C 335.272 326.750 359.830 353.694 358.357 385.460 Z M 358.357 385.460 " fill="#000" fill-opacity="1" stroke-width="1" stroke-linecap="butt" stroke-linejoin="miter" stroke-miterlimit="4" stroke-dasharray="" stroke-dashoffset="0" stroke="none" id="leftEye"/>
    </g>
</svg>