<?xml version="1.0" encoding="UTF-8" standalone="no"?>
<!-- Created with Inkscape (http://www.inkscape.org/) -->

<svg
   xmlns:dc="http://purl.org/dc/elements/1.1/"
   xmlns:cc="http://creativecommons.org/ns#"
   xmlns:rdf="http://www.w3.org/1999/02/22-rdf-syntax-ns#"
   xmlns:svg="http://www.w3.org/2000/svg"
   xmlns="http://www.w3.org/2000/svg"
   xmlns:sodipodi="http://sodipodi.sourceforge.net/DTD/sodipodi-0.dtd"
   xmlns:inkscape="http://www.inkscape.org/namespaces/inkscape"
   version="1.1"
   width="744.09448"
   height="1052.3622"
   id="svg2"
   inkscape:version="0.48.2 r9819"
   sodipodi:docname="smile1.svg">
  <sodipodi:namedview
     pagecolor="#ffffff"
     bordercolor="#666666"
     borderopacity="1"
     objecttolerance="10"
     gridtolerance="10"
     guidetolerance="10"
     inkscape:pageopacity="0"
     inkscape:pageshadow="2"
     inkscape:window-width="1262"
     inkscape:window-height="806"
     id="namedview10"
     showgrid="false"
     inkscape:zoom="0.22425739"
     inkscape:cx="372.04724"
     inkscape:cy="526.18109"
     inkscape:window-x="0"
     inkscape:window-y="0"
     inkscape:window-maximized="0"
     inkscape:current-layer="layer1" />
  <defs
     id="defs4" />
  <metadata
     id="metadata7">
    <rdf:RDF>
      <cc:Work
         rdf:about="">
        <dc:format>image/svg+xml</dc:format>
        <dc:type
           rdf:resource="http://purl.org/dc/dcmitype/StillImage" />
        <dc:title></dc:title>
      </cc:Work>
    </rdf:RDF>
  </metadata>
  <g
     id="layer1"
     inkscape:label="Layer 1">
    <path
       d="m 705.08649,632.13873 a 258.59906,258.59906 0 1 1 -517.19812,0 258.59906,258.59906 0 1 1 517.19812,0 z"
       transform="translate(-78.791899,-131.31983)"
       id="head"
       style="fill:#ffff00"
       inkscape:label="#path2987" />
    <path
       d="m 329.30975,412.93561 a 57.578697,57.578697 0 1 1 -115.1574,0 57.578697,57.578697 0 1 1 115.1574,0 z"
       transform="translate(30.304568,3.0304576)"
       id="rightEye"
       style="fill:#000000"
       inkscape:label="#path2989" />
    <path
       d="m 329.30975,412.93561 a 57.578697,57.578697 0 1 1 -115.1574,0 57.578697,57.578697 0 1 1 115.1574,0 z"
       transform="translate(161.62443,3.0304576)"
       id="leftEye"
       style="fill:#000000"
       inkscape:label="#path3096" />
    <path
       d="m 694.98035,557.60356 a 162.63457,162.63457 0 0 1 -325.26451,-1.22631 l 162.63456,10e-6 z"
       transform="matrix(0.74173846,0,0,0.6645963,-27.755232,214.89525)"
       id="mouth"
       style="fill:#000000"
       inkscape:label="#path3102" />
  </g>
</svg>
