<?xml version="1.0" encoding="UTF-8" standalone="no"?>
<svg xmlns="http://www.w3.org/2000/svg" xmlns:xlink="http://www.w3.org/1999/xlink" xmlns:jitters="http://www.semicolonproductions.com/jitters" viewBox="0.000000 0.000000 744.094488 1052.362205" jitters:gridXSpacing="10" jitters:gridYSpacing="10" jitters:gridActive="no">
    <defs/>
    <g visibility="visible" id="Base Layer" jitters:groupType="layer" jitters:effect="none">
        <path d="M 387.187 216.837 C 231.733 216.837 105.720 345.882 105.720 505.075 C 105.720 664.269 231.733 793.314 387.187 793.314 C 472.278 793.314 548.502 754.596 600.114 693.484 C 598.021 692.557 595.886 691.687 593.856 690.662 C 590.163 688.800 586.573 686.772 583.108 684.602 C 579.643 682.432 576.290 680.127 573.074 677.670 C 569.858 675.214 566.801 672.625 563.856 669.903 C 560.910 667.180 558.107 664.303 555.454 661.334 C 552.801 658.364 550.276 655.299 547.937 652.103 C 545.598 648.907 543.443 645.614 541.440 642.211 C 539.437 638.808 537.610 635.281 535.964 631.691 C 534.318 628.102 532.843 624.440 531.577 620.684 C 530.310 616.928 529.245 613.092 528.379 609.190 C 527.513 605.286 563.090 742.694 599.028 694.451 C 634.966 646.209 645.158 623.889 645.158 619.753 L 657.021 585.016 L 657.599 585.016 C 664.744 559.623 668.653 532.824 668.653 505.075 C 668.653 345.882 542.640 216.837 387.187 216.837 Z M 387.187 216.837 " fill="#ff0" fill-opacity="1" stroke-width="1" stroke-linecap="butt" stroke-linejoin="miter" stroke-miterlimit="4" stroke-dasharray="" stroke-dashoffset="0" stroke="none" id="head"/>
        <path d="M 397.789 748.298 L 397.105 748.298 L 241.732 748.298 C 241.732 748.409 242.011 748.519 242.536 748.627 C 243.061 748.735 243.846 748.841 244.870 748.946 C 245.896 749.050 247.156 749.153 248.655 749.253 C 250.153 749.354 254.523 749.573 256.471 749.669 C 258.418 749.766 264.242 750.044 271.006 750.203 C 277.771 750.363 278.609 750.396 284.448 750.470 C 290.287 750.543 304.751 750.789 320.238 750.879 C 335.725 750.969 356.370 751.181 389.461 751.152 C 422.553 751.123 433.136 751.029 442.468 750.902 C 451.800 750.775 456.338 750.748 471.707 750.538 C 487.075 750.328 489.443 750.178 494.474 750.102 C 498.725 750.039 505.236 749.839 509.800 749.756 C 518.537 749.636 539.350 748.695 538.927 748.284 " fill="#000" fill-opacity="1" stroke-width="1" stroke-linecap="butt" stroke-linejoin="miter" stroke-miterlimit="4" stroke-dasharray="" stroke-dashoffset="0" stroke="#000" stroke-opacity="1" id="mouth"/>
        <path d="M 521.435 782.620 C 521.435 788.408 496.857 793.100 466.538 793.100 C 436.219 793.100 411.641 788.408 411.641 782.620 C 411.641 776.832 436.219 772.139 466.538 772.139 C 496.857 772.139 521.435 776.832 521.435 782.620 Z M 521.435 782.620 " fill="#000" fill-opacity="1" stroke-width="1" stroke-linecap="butt" stroke-linejoin="miter" stroke-miterlimit="4" stroke-dasharray="" stroke-dashoffset="0" stroke="none" id="rightEye"/>
        <path d="M 378.863 782.506 C 377.316 789.003 349.008 794.026 315.635 793.725 C 282.262 793.424 256.463 787.913 258.009 781.416 C 259.556 774.919 287.864 769.897 321.236 770.198 C 354.610 770.499 380.410 776.010 378.863 782.506 Z M 378.863 782.506 " fill="#000" fill-opacity="1" stroke-width="1" stroke-linecap="butt" stroke-linejoin="miter" stroke-miterlimit="4" stroke-dasharray="" stroke-dashoffset="0" stroke="none" id="leftEye"/>
    </g>
</svg>