<?xml version="1.0" encoding="UTF-8" standalone="no"?>
<svg
   xmlns:jitters="http://www.semicolonproductions.com/jitters"
   xmlns:dc="http://purl.org/dc/elements/1.1/"
   xmlns:cc="http://creativecommons.org/ns#"
   xmlns:rdf="http://www.w3.org/1999/02/22-rdf-syntax-ns#"
   xmlns:svg="http://www.w3.org/2000/svg"
   xmlns="http://www.w3.org/2000/svg"
   xmlns:sodipodi="http://sodipodi.sourceforge.net/DTD/sodipodi-0.dtd"
   xmlns:inkscape="http://www.inkscape.org/namespaces/inkscape"
   viewBox="0.000000 0.000000 744.094488 1052.362205"
   jitters:gridXSpacing="10"
   jitters:gridYSpacing="10"
   jitters:gridActive="no"
   id="svg2987"
   version="1.1"
   inkscape:version="0.48.2 r9819"
   width="100%"
   height="100%"
   sodipodi:docname="smile2.svg">
  <metadata
     id="metadata2998">
    <rdf:RDF>
      <cc:Work
         rdf:about="">
        <dc:format>image/svg+xml</dc:format>
        <dc:type
           rdf:resource="http://purl.org/dc/dcmitype/StillImage" />
        <dc:title></dc:title>
      </cc:Work>
    </rdf:RDF>
  </metadata>
  <sodipodi:namedview
     pagecolor="#ffffff"
     bordercolor="#666666"
     borderopacity="1"
     objecttolerance="10"
     gridtolerance="10"
     guidetolerance="10"
     inkscape:pageopacity="0"
     inkscape:pageshadow="2"
     inkscape:window-width="1076"
     inkscape:window-height="698"
     id="namedview2996"
     showgrid="false"
     inkscape:zoom="0.22425739"
     inkscape:cx="1081.054"
     inkscape:cy="882.91405"
     inkscape:window-x="98"
     inkscape:window-y="0"
     inkscape:window-maximized="0"
     inkscape:current-layer="svg2987" />
  <defs
     id="defs2989" />
  <g
     visibility="visible"
     id="Base Layer"
     jitters:groupType="layer"
     jitters:effect="none"
     inkscape:label="Layer 1">
    <path
       d="M 616.125 572.531 L 615.594 572.531 L 494.969 572.531 C 494.969 576.242 495.186 579.916 495.594 583.531 C 496.001 587.146 496.611 590.717 497.406 594.219 C 498.202 597.720 499.180 601.161 500.344 604.531 C 501.507 607.901 502.863 611.186 504.375 614.406 C 505.887 617.627 507.566 620.791 509.406 623.844 C 511.246 626.897 513.226 629.851 515.375 632.719 C 517.524 635.586 519.844 638.336 522.281 641.000 C 524.718 643.664 527.294 646.245 530.000 648.688 C 532.706 651.130 535.514 653.453 538.469 655.656 C 541.424 657.860 544.504 659.928 547.688 661.875 C 550.871 663.822 554.169 665.641 557.562 667.312 C 559.427 668.231 561.389 669.012 563.312 669.844 C 587.423 641.967 605.642 608.906 616.125 572.531 Z M 616.125 572.531 "
       fill="#000"
       fill-opacity="1"
       stroke-width="1"
       stroke-linecap="butt"
       stroke-linejoin="miter"
       stroke-miterlimit="4"
       stroke-dasharray=""
       stroke-dashoffset="0"
       stroke="none"
       id="mouth" />
    <path
       d="M 367.688 242.219 C 224.867 242.219 109.094 357.992 109.094 500.812 C 109.094 643.633 224.867 759.406 367.688 759.406 C 445.864 759.406 515.894 724.670 563.312 669.844 C 561.389 669.012 559.427 668.231 557.562 667.312 C 554.169 665.641 550.871 663.822 547.688 661.875 C 544.504 659.928 541.424 657.860 538.469 655.656 C 535.514 653.453 532.706 651.130 530.000 648.688 C 527.294 646.245 524.718 643.664 522.281 641.000 C 519.844 638.336 517.524 635.586 515.375 632.719 C 513.226 629.851 511.246 626.897 509.406 623.844 C 507.566 620.791 505.887 617.627 504.375 614.406 C 502.863 611.186 501.507 607.901 500.344 604.531 C 499.180 601.161 498.202 597.720 497.406 594.219 C 496.611 590.717 496.001 587.146 495.594 583.531 C 495.186 579.916 494.969 576.242 494.969 572.531 L 615.594 572.531 L 616.125 572.531 C 622.690 549.750 626.281 525.707 626.281 500.812 C 626.281 357.992 510.508 242.219 367.688 242.219 Z M 367.688 242.219 "
       fill="#ff0"
       fill-opacity="1"
       stroke-width="1"
       stroke-linecap="butt"
       stroke-linejoin="miter"
       stroke-miterlimit="4"
       stroke-dasharray=""
       stroke-dashoffset="0"
       stroke="none"
       id="head" />
    <path
       d="M 623.264 397.783 C 623.264 429.583 597.485 455.362 565.685 455.362 C 533.886 455.362 508.107 429.583 508.107 397.783 C 508.107 365.983 533.886 340.205 565.685 340.205 C 597.485 340.205 623.264 365.983 623.264 397.783 Z M 623.264 397.783 "
       fill="#000"
       fill-opacity="1"
       stroke-width="1"
       stroke-linecap="butt"
       stroke-linejoin="miter"
       stroke-miterlimit="4"
       stroke-dasharray=""
       stroke-dashoffset="0"
       stroke="none"
       id="rightEye" />
    <path
       d="M 623.264 397.783 C 623.264 429.583 597.485 455.362 565.685 455.362 C 533.886 455.362 508.107 429.583 508.107 397.783 C 508.107 365.983 533.886 340.205 565.685 340.205 C 597.485 340.205 623.264 365.983 623.264 397.783 Z M 623.264 397.783 "
       fill="#000"
       fill-opacity="1"
       stroke-width="1"
       stroke-linecap="butt"
       stroke-linejoin="miter"
       stroke-miterlimit="4"
       stroke-dasharray=""
       stroke-dashoffset="0"
       stroke="none"
       id="leftEye" />
  </g>
  <g
     inkscape:groupmode="layer"
     id="layer1"
     inkscape:label="Layer 1" />
</svg>
