<?xml version="1.0" encoding="UTF-8" standalone="no"?>
<svg xmlns="http://www.w3.org/2000/svg" xmlns:xlink="http://www.w3.org/1999/xlink" xmlns:jitters="http://www.semicolonproductions.com/jitters" viewBox="0.000000 0.000000 640.000000 480.000000" jitters:gridXSpacing="10" jitters:gridYSpacing="10" jitters:gridActive="no">
    <defs/>
    <g visibility="visible" id="Base Layer" jitters:groupType="layer" jitters:effect="none">
        <path d="M 440.208 119.792 C 506.597 186.181 506.597 293.819 440.208 360.208 C 373.819 426.597 266.181 426.597 199.792 360.208 C 133.403 293.819 133.403 186.181 199.792 119.792 C 266.181 53.403 373.819 53.403 440.208 119.792 Z M 440.208 119.792 " fill="#0098f8" fill-opacity="1" stroke-width="1" stroke-linecap="butt" stroke-linejoin="miter" stroke-miterlimit="4" stroke-dasharray="" stroke-dashoffset="0" stroke="none" id="circle"/>
        <path d="M 317.746 240.000 L 317.746 242.694 L 317.746 254.164 L 317.746 273.946 L 317.746 300.003 L 317.746 329.558 L 317.746 359.144 L 317.746 382.650 L 317.746 398.490 L 317.746 407.130 L 317.746 410.147 " fill="none" stroke-width="10" stroke-linecap="butt" stroke-linejoin="miter" stroke-miterlimit="4" stroke-dasharray="" stroke-dashoffset="0" stroke="#00f94f" stroke-opacity="1" id="vert"/>
        <path d="M 487.218 241.570 L 483.948 287.540 L 469.050 322.830 L 428.727 364.245 L 376.264 401.524 L 315.716 405.660 L 256.629 400.055 L 208.114 364.245 L 176.102 322.830 L 158.750 281.415 L 152.783 240.000 " fill="none" stroke-width="10" stroke-linecap="butt" stroke-linejoin="miter" stroke-miterlimit="4" stroke-dasharray="" stroke-dashoffset="0" stroke="#00f94f" stroke-opacity="1" id="horiz"/>
        <path d="M 489.736 243.190 L 467.143 285.539 L 436.628 318.226 L 402.753 340.357 L 357.757 350.371 L 315.437 352.524 L 269.576 345.924 L 221.090 326.411 L 203.426 310.758 L 178.924 289.327 L 153.755 243.082 " fill="none" stroke-width="10" stroke-linecap="butt" stroke-linejoin="miter" stroke-miterlimit="4" stroke-dasharray="" stroke-dashoffset="0" stroke="#ffa639" stroke-opacity="1" id="cross"/>
    </g>
</svg>